# xmcd
#
# Track frame offsets:
#	150
#	23685
#	43153
#	62445
#	82112
#	99450
#	141622
#	164065
#	182587
#	203755
#	224067
#	242195
#
# Disc length: 3526 seconds
#
# Revision: 1
# Processed by: cddbd v1.5.1PL0 Copyright (c) Steve Scherf et al.
# Submitted via: EasyCDDAExtractor 6.5.0.1
#
DISCID=b50dc40c
DTITLE=Berlin - Metro Greatest Hits
DYEAR=1900
DGENRE=
TTITLE0=Sex(I'm A)(Metro Greatest Hits US CD Version)
TTITLE1=Metro(Metro Greatest Hits US CD Version)
TTITLE2=Masquerade(Metro Greatest Hits US CD Version)
TTITLE3=Take My Breath Away(Metro Greatest Hits US CD Version)
TTITLE4=Not It's My Turn(Aqualite Mix)(Metro Greatest Hits US CD Version)
TTITLE5=Sex(I'm A)(Rosetta Stone Extended Remix)(Metro Greatest Hits US CD Ver
TTITLE5=sion)
TTITLE6=Dancing In Berlin(Astralasia Mix)(Metro Greatest Hits US CD Version)
TTITLE7=No More Words(Meeks Mix)(Metro Greatest Hits US CD Version)
TTITLE8=Take My Breath Away(Mission UK Mix)(Metro Greatest Hits US CD Version)
TTITLE9=Metro(Sigue Sigue Sputnik Mix)(Metro Greatest Hits US CD Version)
TTITLE10=Masquerade(Interface Mix)(Metro Greatest Hits US CD Version)
TTITLE11=Pleasure Victim(Transmutator Mix)(Metro Greatest Hits US CD Version)
EXTD=
EXTT0=
EXTT1=
EXTT2=
EXTT3=
EXTT4=
EXTT5=
EXTT6=
EXTT7=
EXTT8=
EXTT9=
EXTT10=
EXTT11=
PLAYORDER=
